<svg xmlns="http://www.w3.org/2000/svg" width="6" height="12" viewBox="0 0 6 12">
  <path fill="#99A9BF" fill-rule="evenodd" d="M35.0657474,10.2786731 C34.9481218,9.9932159 34.9866349,9.64395915 35.1949296,9.41440867 L39.9172327,4.20450316 C40.1747463,3.92056694 40.5806849,3.93406332 40.8245418,4.23397746 C41.0679457,4.53433988 41.0567871,5.00784976 40.7992735,5.2922983 L36.5621451,9.96777612 L40.7825562,14.712641 C41.0375168,14.9996031 41.0452304,15.473113 40.7992735,15.7709619 C40.6734952,15.9236966 40.5054155,16 40.3372672,16 C40.1768874,16 40.0164527,15.9301807 39.8919782,15.7904619 L35.2124843,10.5296128 C35.2034805,10.5191904 35.2000766,10.5047014 35.1910728,10.4937666 C35.1842102,10.4862099 35.176977,10.4807505 35.1701281,10.4727455 C35.1337561,10.42835 35.1144995,10.3739802 35.089698,10.3230526 C35.0828628,10.307587 35.0717316,10.294651 35.0657474,10.2786731 Z" transform="translate(-35 -4)"/>
</svg>
