<svg xmlns="http://www.w3.org/2000/svg" width="6" height="12" viewBox="0 0 6 12">
  <path fill="#99A9BF" fill-rule="evenodd" d="M163.065747,10.2786731 C162.948122,9.9932159 162.986635,9.64395915 163.19493,9.41440867 L167.917233,4.20450316 C168.174746,3.92056694 168.580685,3.93406332 168.824542,4.23397746 C169.067946,4.53433988 169.056787,5.00784976 168.799274,5.2922983 L164.562145,9.96777612 L168.782556,14.712641 C169.037517,14.9996031 169.04523,15.473113 168.799274,15.7709619 C168.673495,15.9236966 168.505415,16 168.337267,16 C168.176887,16 168.016453,15.9301807 167.891978,15.7904619 L163.212484,10.5296128 C163.20348,10.5191904 163.200077,10.5047014 163.191073,10.4937666 C163.18421,10.4862099 163.176977,10.4807505 163.170128,10.4727455 C163.133756,10.42835 163.1145,10.3739802 163.089698,10.3230526 C163.082863,10.307587 163.071732,10.294651 163.065747,10.2786731 Z" transform="matrix(-1 0 0 1 169 -4)"/>
</svg>
