<svg xmlns="http://www.w3.org/2000/svg" width="11" height="12" viewBox="0 0 11 12">
  <path fill="#99A9BF" fill-rule="evenodd" d="M203.934253,10.2786731 C204.051878,9.9932159 204.013365,9.64395915 203.80507,9.41440867 L199.082767,4.20450316 C198.825254,3.92056694 198.419315,3.93406332 198.175458,4.23397746 C197.932054,4.53433988 197.943213,5.00784976 198.200726,5.2922983 L202.437855,9.96777612 L198.217444,14.712641 C197.962483,14.9996031 197.95477,15.473113 198.200726,15.7709619 C198.326505,15.9236966 198.494585,16 198.662733,16 C198.823113,16 198.983547,15.9301807 199.108022,15.7904619 L203.787516,10.5296128 C203.79652,10.5191904 203.799923,10.5047014 203.808927,10.4937666 C203.81579,10.4862099 203.823023,10.4807505 203.829872,10.4727455 C203.866244,10.42835 203.8855,10.3739802 203.910302,10.3230526 C203.917137,10.307587 203.928268,10.294651 203.934253,10.2786731 Z M198.934253,10.2786731 C199.051878,9.9932159 199.013365,9.64395915 198.80507,9.41440867 L194.082767,4.20450316 C193.825254,3.92056694 193.419315,3.93406332 193.175458,4.23397746 C192.932054,4.53433988 192.943213,5.00784976 193.200726,5.2922983 L197.437855,9.96777612 L193.217444,14.712641 C192.962483,14.9996031 192.95477,15.473113 193.200726,15.7709619 C193.326505,15.9236966 193.494585,16 193.662733,16 C193.823113,16 193.983547,15.9301807 194.108022,15.7904619 L198.787516,10.5296128 C198.79652,10.5191904 198.799923,10.5047014 198.808927,10.4937666 C198.81579,10.4862099 198.823023,10.4807505 198.829872,10.4727455 C198.866244,10.42835 198.8855,10.3739802 198.910302,10.3230526 C198.917137,10.307587 198.928268,10.294651 198.934253,10.2786731 Z" transform="translate(-193 -4)"/>
</svg>
