<svg xmlns="http://www.w3.org/2000/svg" width="11" height="12" viewBox="0 0 11 12">
  <path fill="#99A9BF" fill-rule="evenodd" d="M0.0657473895,10.2786731 C-0.0518781829,9.9932159 -0.0133650746,9.64395915 0.194929643,9.41440867 L4.91723271,4.20450316 C5.17474625,3.92056694 5.58068487,3.93406332 5.82454176,4.23397746 C6.06794572,4.53433988 6.05678707,5.00784976 5.79927353,5.2922983 L1.56214508,9.96777612 L5.78255617,14.712641 C6.0375168,14.9996031 6.0452304,15.473113 5.79927355,15.7709619 C5.67349516,15.9236966 5.50541549,16 5.33726719,16 C5.1768874,16 5.01645271,15.9301807 4.89197822,15.7904619 L0.212484256,10.5296128 C0.203480476,10.5191904 0.200076608,10.5047014 0.191072829,10.4937666 C0.184210194,10.4862099 0.176976981,10.4807505 0.170128068,10.4727455 C0.133756105,10.42835 0.114499544,10.3739802 0.0896979834,10.3230526 C0.0828628049,10.307587 0.071731601,10.294651 0.0657473895,10.2786731 Z M5.06574739,10.2786731 C4.94812182,9.9932159 4.98663493,9.64395915 5.19492964,9.41440867 L9.91723271,4.20450316 C10.1747463,3.92056694 10.5806849,3.93406332 10.8245418,4.23397746 C11.0679457,4.53433988 11.0567871,5.00784976 10.7992735,5.2922983 L6.56214508,9.96777612 L10.7825562,14.712641 C11.0375168,14.9996031 11.0452304,15.473113 10.7992735,15.7709619 C10.6734952,15.9236966 10.5054155,16 10.3372672,16 C10.1768874,16 10.0164527,15.9301807 9.89197822,15.7904619 L5.21248426,10.5296128 C5.20348048,10.5191904 5.20007661,10.5047014 5.19107283,10.4937666 C5.18421019,10.4862099 5.17697698,10.4807505 5.17012807,10.4727455 C5.13375611,10.42835 5.11449954,10.3739802 5.08969798,10.3230526 C5.0828628,10.307587 5.0717316,10.294651 5.06574739,10.2786731 Z" transform="translate(0 -4)"/>
</svg>
